<svg width="36" height="32" viewBox="0 0 36 32" fill="none" xmlns="http://www.w3.org/2000/svg">
<g id="Globe">
<path id="Icon" d="M33 16.0003C33 23.3641 26.2843 29.3337 18 29.3337M33 16.0003C33 8.63653 26.2843 2.66699 18 2.66699M33 16.0003H3M18 29.3337C9.71573 29.3337 3 23.3641 3 16.0003M18 29.3337C21.7519 25.6825 23.8841 20.9443 24 16.0003C23.8841 11.0564 21.7519 6.31813 18 2.66699M18 29.3337C14.2481 25.6825 12.1159 20.9443 12 16.0003C12.1159 11.0564 14.2481 6.31813 18 2.66699M3 16.0003C3 8.63653 9.71573 2.66699 18 2.66699" stroke="#1E1E1E" stroke-width="4" stroke-linecap="round" stroke-linejoin="round"/>
</g>
</svg>
